<svg width="30" height="29" fill="none" xmlns="http://www.w3.org/2000/svg"><path d="M14.585 0c-3.938 0-4.432.017-5.979.088-1.544.07-2.597.315-3.52.673a7.1 7.1 0 00-2.568 1.672A7.118 7.118 0 00.844 5.002C.485 5.924.24 6.978.171 8.52.1 10.067.083 10.562.083 14.5s.018 4.43.088 5.977c.071 1.544.315 2.598.674 3.52.37.953.866 1.762 1.672 2.568a7.1 7.1 0 002.568 1.674c.922.358 1.976.603 3.52.673 1.546.07 2.04.088 5.978.088 3.938 0 4.431-.017 5.978-.088 1.543-.07 2.598-.315 3.52-.673a7.096 7.096 0 002.568-1.674 7.117 7.117 0 001.673-2.568c.357-.922.601-1.976.674-3.52.07-1.546.088-2.039.088-5.977s-.019-4.432-.088-5.979c-.073-1.543-.317-2.597-.674-3.52a7.116 7.116 0 00-1.673-2.568A7.087 7.087 0 0024.08.761c-.924-.358-1.979-.603-3.522-.673C19.012.018 18.519 0 14.58 0h.005zm-1.3 2.613h1.3c3.871 0 4.33.014 5.86.083 1.413.065 2.18.301 2.691.5a4.49 4.49 0 011.667 1.084 4.5 4.5 0 011.085 1.668c.198.51.435 1.278.5 2.691.069 1.529.084 1.988.084 5.858 0 3.87-.015 4.329-.085 5.857-.065 1.414-.3 2.181-.5 2.692a4.483 4.483 0 01-1.084 1.665c-.508.508-.99.822-1.667 1.085-.51.2-1.278.435-2.692.5-1.528.069-1.988.084-5.86.084-3.871 0-4.33-.015-5.858-.085-1.414-.065-2.181-.301-2.693-.5a4.491 4.491 0 01-1.667-1.084 4.494 4.494 0 01-1.086-1.667c-.198-.51-.435-1.277-.499-2.691-.07-1.529-.083-1.988-.083-5.86 0-3.872.014-4.329.083-5.857.065-1.414.301-2.181.5-2.693a4.493 4.493 0 011.085-1.667 4.5 4.5 0 011.667-1.085c.511-.2 1.279-.435 2.693-.5 1.337-.06 1.856-.079 4.558-.082v.004zm9.04 2.408a1.74 1.74 0 100 3.48 1.74 1.74 0 000-3.481zm-7.74 2.033a7.447 7.447 0 10.001 14.893 7.447 7.447 0 00-.001-14.893zm0 2.613a4.833 4.833 0 110 9.666 4.833 4.833 0 010-9.666z" fill="#424242"/></svg>