<svg width="42" height="29" fill="none" xmlns="http://www.w3.org/2000/svg"><path fill-rule="evenodd" clip-rule="evenodd" d="M36.616.887a5.169 5.169 0 013.621 3.65c.88 3.242.846 9.997.846 9.997s0 6.721-.846 9.963a5.169 5.169 0 01-3.62 3.65C33.4 29 20.541 29 20.541 29s-12.826 0-16.075-.887a5.168 5.168 0 01-3.621-3.65C0 21.254 0 14.5 0 14.5s0-6.721.846-9.962C1.32 2.764 2.741 1.33 4.467.853 7.682 0 20.542 0 20.542 0s12.86 0 16.074.887zm-20.17 7.404L27.142 14.5l-10.694 6.21V8.29z" fill="#424242"/></svg>