<svg width="30" height="29" viewBox="0 0 30 29" fill="none" xmlns="http://www.w3.org/2000/svg">
<path d="M14.5849 0C10.6469 0 10.1526 0.017219 8.60596 0.0876044C7.0623 0.158292 6.00862 0.402677 5.08665 0.76125C4.13297 1.1316 3.32398 1.62702 2.51801 2.43328C1.71144 3.23924 1.21602 4.04822 0.844452 5.00159C0.484969 5.92385 0.240279 6.97782 0.170799 8.52087C0.101621 10.0675 0.0834961 10.562 0.0834961 14.5C0.0834961 18.438 0.101017 18.9307 0.171101 20.4773C0.242092 22.021 0.48648 23.0746 0.844754 23.9966C1.21541 24.9503 1.71084 25.7593 2.5171 26.5652C3.32277 27.3718 4.13176 27.8684 5.08484 28.2388C6.00741 28.5973 7.06139 28.8417 8.60475 28.9124C10.1514 28.9828 10.6453 29 14.583 29C18.5213 29 19.014 28.9828 20.5607 28.9124C22.1044 28.8417 23.1593 28.5973 24.0819 28.2388C25.0352 27.8684 25.843 27.3718 26.6487 26.5652C27.4552 25.7593 27.9507 24.9503 28.3222 23.9969C28.6787 23.0746 28.9234 22.0207 28.9959 20.4776C29.0654 18.931 29.0835 18.438 29.0835 14.5C29.0835 10.562 29.0654 10.0678 28.9959 8.52117C28.9234 6.97752 28.6787 5.92385 28.3222 5.0019C27.9507 4.04822 27.4552 3.23924 26.6487 2.43328C25.8421 1.62672 25.0355 1.1313 24.0809 0.76125C23.1566 0.402677 22.1023 0.158292 20.5586 0.0876044C19.0119 0.017219 18.5195 0 14.5803 0H14.5849ZM13.2841 2.61302C13.6701 2.61242 14.1009 2.61302 14.5849 2.61302C18.4564 2.61302 18.9153 2.62692 20.4441 2.6964C21.8579 2.76104 22.6252 2.99727 23.1363 3.19574C23.813 3.45855 24.2954 3.77272 24.8026 4.28022C25.3101 4.78772 25.6243 5.27105 25.8877 5.94772C26.0862 6.45824 26.3227 7.22553 26.3871 8.63928C26.4566 10.1678 26.4717 10.627 26.4717 14.4967C26.4717 18.3664 26.4566 18.8255 26.3871 20.3541C26.3224 21.7678 26.0862 22.5351 25.8877 23.0456C25.6249 23.7223 25.3101 24.2041 24.8026 24.7113C24.2951 25.2188 23.8133 25.533 23.1363 25.7958C22.6258 25.9952 21.8579 26.2308 20.4441 26.2954C18.9156 26.3649 18.4564 26.38 14.5849 26.38C10.713 26.38 10.2541 26.3649 8.72559 26.2954C7.31182 26.2302 6.54452 25.994 6.03309 25.7955C5.35642 25.5327 4.87308 25.2185 4.36557 24.711C3.85807 24.2035 3.5439 23.7214 3.28048 23.0444C3.08201 22.5339 2.84547 21.7666 2.78113 20.3529C2.71165 18.8243 2.69775 18.3652 2.69775 14.4931C2.69775 10.6209 2.71165 10.1642 2.78113 8.63566C2.84577 7.22191 3.08201 6.45461 3.28048 5.94349C3.54329 5.26682 3.85807 4.78349 4.36557 4.27599C4.87308 3.76849 5.35642 3.45432 6.03309 3.19091C6.54422 2.99153 7.31182 2.75591 8.72559 2.69096C10.0632 2.63054 10.5816 2.61242 13.2841 2.6094V2.61302ZM22.3249 5.02062C21.3643 5.02062 20.5849 5.79909 20.5849 6.76002C20.5849 7.72065 21.3643 8.50002 22.3249 8.50002C23.2855 8.50002 24.0649 7.72065 24.0649 6.76002C24.0649 5.7994 23.2855 5.02002 22.3249 5.02002V5.02062ZM14.5849 7.05365C10.4726 7.05365 7.13842 10.3877 7.13842 14.5C7.13842 18.6123 10.4726 21.9448 14.5849 21.9448C18.6972 21.9448 22.0301 18.6123 22.0301 14.5C22.0301 10.3877 18.6969 7.05365 14.5846 7.05365H14.5849ZM14.5849 9.66667C17.2541 9.66667 19.4182 11.8305 19.4182 14.5C19.4182 17.1692 17.2541 19.3333 14.5849 19.3333C11.9153 19.3333 9.75147 17.1692 9.75147 14.5C9.75147 11.8305 11.9153 9.66667 14.5849 9.66667Z" fill="#424242"/>
</svg>
