<svg width="16" height="16" viewBox="0 0 16 16" fill="none" xmlns="http://www.w3.org/2000/svg">
<path d="M6.09071 1.80095e-08C7.25587 -2.50484e-05 8.39658 0.334018 9.37751 0.962497C10.3584 1.59098 11.1384 2.48751 11.6249 3.54573C12.1113 4.60395 12.2839 5.77944 12.122 6.93273C11.9602 8.08602 11.4708 9.1687 10.7118 10.0523L16 15.3379L15.3376 16L10.0484 10.7135C9.30249 11.3511 8.41343 11.799 7.45696 12.0192C6.5005 12.2393 5.50496 12.2252 4.55516 11.9779C3.60535 11.7306 2.7294 11.2576 2.00192 10.599C1.27444 9.94047 0.716974 9.11595 0.377009 8.19566C0.0370426 7.27538 -0.0753542 6.2866 0.0493907 5.31355C0.174136 4.34049 0.532326 3.41199 1.09346 2.60711C1.65459 1.80223 2.40203 1.14483 3.27213 0.690889C4.14223 0.23695 5.10921 -7.54365e-05 6.09071 1.80095e-08ZM6.09071 0.936494C4.72398 0.936494 3.41322 1.47916 2.44679 2.4451C1.48036 3.41105 0.93743 4.72116 0.93743 6.08721C0.93743 7.45327 1.48036 8.76337 2.44679 9.72932C3.41322 10.6953 4.72398 11.2379 6.09071 11.2379C7.45744 11.2379 8.7682 10.6953 9.73463 9.72932C10.7011 8.76337 11.244 7.45327 11.244 6.08721C11.244 4.72116 10.7011 3.41105 9.73463 2.4451C8.7682 1.47916 7.45744 0.936494 6.09071 0.936494Z" fill="white"/>
</svg>
