<svg width="42" height="29" viewBox="0 0 42 29" fill="none" xmlns="http://www.w3.org/2000/svg">
<path fill-rule="evenodd" clip-rule="evenodd" d="M36.6161 0.887059C38.3759 1.36471 39.7633 2.76353 40.2371 4.53765C41.117 7.77882 41.0832 14.5341 41.0832 14.5341C41.0832 14.5341 41.0832 21.2553 40.2371 24.4965C39.7633 26.2706 38.3759 27.6694 36.6161 28.1471C33.4012 29 20.5416 29 20.5416 29C20.5416 29 7.71578 29 4.46703 28.1129C2.70729 27.6353 1.3198 26.2365 0.846029 24.4624C0 21.2553 0 14.5 0 14.5C0 14.5 0 7.77882 0.846029 4.53765C1.3198 2.76353 2.74113 1.33059 4.46703 0.852941C7.68194 0 20.5416 0 20.5416 0C20.5416 0 33.4012 0 36.6161 0.887059ZM16.4468 8.29055L27.1406 14.5L16.4468 20.7094V8.29055Z" fill="#424242"/>
</svg>
